<?xml version="1.0" encoding="UTF-8" standalone="no"?>
<!-- Created with Inkscape (http://www.inkscape.org/) -->

<svg
   version="1.1"
   id="svg2"
   width="106.94946"
   height="119.4978"
   viewBox="0 0 106.94946 119.4978"
   sodipodi:docname="2357451.ai"
   xmlns:inkscape="http://www.inkscape.org/namespaces/inkscape"
   xmlns:sodipodi="http://sodipodi.sourceforge.net/DTD/sodipodi-0.dtd"
   xmlns:xlink="http://www.w3.org/1999/xlink"
   xmlns="http://www.w3.org/2000/svg"
   xmlns:svg="http://www.w3.org/2000/svg">
  <defs
     id="defs6">
    <linearGradient
       inkscape:collect="always"
       id="linearGradient3472">
      <stop
         style="stop-color:#613fe5;stop-opacity:1;"
         offset="0"
         id="stop3468" />
      <stop
         style="stop-color:#a08cef;stop-opacity:1;"
         offset="1"
         id="stop3470" />
    </linearGradient>
    <clipPath
       clipPathUnits="userSpaceOnUse"
       id="clipPath46">
      <path
         d="m 354.428,158.521 -6.234,-3.6 C 347.578,154.566 347.2,153.91 347.2,153.2 v 0 -7.199 c 0,-0.71 0.378,-1.366 0.994,-1.721 v 0 l 6.234,-3.599 c 0.615,-0.355 1.373,-0.355 1.987,0 v 0 l 6.235,3.599 c 0.614,0.355 0.993,1.011 0.993,1.721 v 0 7.199 c 0,0.71 -0.379,1.366 -0.993,1.721 v 0 l -6.235,3.6 c -0.307,0.178 -0.65,0.266 -0.993,0.266 v 0 c -0.343,0 -0.687,-0.088 -0.994,-0.266"
         id="path44" />
    </clipPath>
    <linearGradient
       inkscape:collect="always"
       xlink:href="#linearGradient3472"
       id="linearGradient3474"
       x1="348.06805"
       y1="158.20909"
       x2="363.28131"
       y2="140.70331"
       gradientUnits="userSpaceOnUse" />
    <linearGradient
       inkscape:collect="always"
       xlink:href="#linearGradient3472"
       id="linearGradient3600"
       gradientUnits="userSpaceOnUse"
       x1="348.06805"
       y1="158.20909"
       x2="363.28131"
       y2="140.70331" />
    <linearGradient
       inkscape:collect="always"
       xlink:href="#linearGradient3472"
       id="linearGradient3602"
       gradientUnits="userSpaceOnUse"
       x1="348.06805"
       y1="158.20909"
       x2="363.28131"
       y2="140.70331" />
    <linearGradient
       inkscape:collect="always"
       xlink:href="#linearGradient3472"
       id="linearGradient3604"
       gradientUnits="userSpaceOnUse"
       x1="348.06805"
       y1="158.20909"
       x2="363.28131"
       y2="140.70331" />
    <linearGradient
       inkscape:collect="always"
       xlink:href="#linearGradient3472"
       id="linearGradient3606"
       gradientUnits="userSpaceOnUse"
       x1="348.06805"
       y1="158.20909"
       x2="363.28131"
       y2="140.70331" />
  </defs>
  <sodipodi:namedview
     id="namedview4"
     pagecolor="#ffffff"
     bordercolor="#000000"
     borderopacity="0.25"
     inkscape:showpageshadow="2"
     inkscape:pageopacity="0.0"
     inkscape:pagecheckerboard="0"
     inkscape:deskcolor="#d1d1d1"
     showgrid="true">
    <inkscape:grid
       type="xygrid"
       id="grid1115" />
  </sodipodi:namedview>
  <g
     id="g10"
     inkscape:groupmode="layer"
     inkscape:label="Page 1"
     transform="matrix(1.3333333,0,0,-1.3333333,-302.55014,255.43004)">
    <g
       id="g40"
       style="fill:url(#linearGradient3474);fill-opacity:1"
       transform="matrix(4.8781907,0,0,4.8781907,-1466.7952,-583.02073)"
       inkscape:export-filename="..\hexagon-abstract-modern-gradient-logo\asd.svg"
       inkscape:export-xdpi="43.429199"
       inkscape:export-ydpi="43.429199">
      <g
         id="g42"
         clip-path="url(#clipPath46)"
         style="fill:url(#linearGradient3606);fill-opacity:1">
        <g
           id="g48"
           style="fill:url(#linearGradient3604);fill-opacity:1">
          <g
             id="g50"
             style="fill:url(#linearGradient3602);fill-opacity:1">
            <path
               d="m 354.428,158.521 -6.234,-3.6 C 347.578,154.566 347.2,153.91 347.2,153.2 v 0 -7.199 c 0,-0.71 0.378,-1.366 0.994,-1.721 v 0 l 6.234,-3.599 c 0.615,-0.355 1.373,-0.355 1.987,0 v 0 l 6.235,3.599 c 0.614,0.355 0.993,1.011 0.993,1.721 v 0 7.199 c 0,0.71 -0.379,1.366 -0.993,1.721 v 0 l -6.235,3.6 c -0.307,0.178 -0.65,0.266 -0.993,0.266 v 0 c -0.343,0 -0.687,-0.088 -0.994,-0.266"
               style="fill:url(#linearGradient3600);fill-opacity:1;stroke:none"
               id="path58" />
          </g>
        </g>
      </g>
    </g>
  </g>
</svg>
