<svg xmlns="http://www.w3.org/2000/svg" xmlns:xlink="http://www.w3.org/1999/xlink" style="margin:auto;display:block;z-index:1;position:relative" width="1713" height="1129" preserveAspectRatio="xMidYMid" viewBox="0 0 1713 1129">
<g transform="translate(856.5,564.5) scale(1,1) translate(-856.5,-564.5)"><path id="path0" d="M 40.59744333485561 330.900039437313
c 0 29.76164850294773 -7.282105484763806 8.548558612548815 -15.83066409731262 8.548558612548815
S 8.93611514023037 360.6616879402607 8.93611514023037 330.900039437313
s 7.282105484763806 -8.548558612548815 15.83066409731262 -8.548558612548815
S 40.59744333485561 301.1383909343653 40.59744333485561 330.900039437313
z" fill="none" stroke="none"></path>
<circle cx="0" cy="0" r="24.449320371692902" fill="#c0b2f5" opacity="0.9">
  <animateMotion begin="-16.17912180464268s" dur="20s" repeatCount="indefinite">
    <mpath xlink:href="#path0"></mpath>
  </animateMotion>
</circle><path id="path1" d="M 1522.7718413526434 580.5413122648208
c 0 22.956358401636045 -5.616981311038606 6.5938476260018435 -12.21082893704045 6.5938476260018435
S 1498.3501834785623 603.4976706664569 1498.3501834785623 580.5413122648208
s 5.616981311038606 -6.5938476260018435 12.21082893704045 -6.5938476260018435
S 1522.7718413526434 557.5849538631848 1522.7718413526434 580.5413122648208
z" fill="none" stroke="none"></path>
<circle cx="0" cy="0" r="19.766871394593714" fill="#613fe5" opacity="0.9">
  <animateMotion begin="-12.458803585758474s" dur="20s" repeatCount="indefinite">
    <mpath xlink:href="#path1"></mpath>
  </animateMotion>
</circle><path id="path2" d="M 759.5319730661101 526.1033738706323
c 0 35.36273471557575 -8.652584026151512 10.157381248090905 -18.809965274242415 10.157381248090905
S 721.9120425176254 561.466108586208 721.9120425176254 526.1033738706323
s 8.652584026151512 -10.157381248090905 18.809965274242415 -10.157381248090905
S 759.5319730661101 490.7406391550565 759.5319730661101 526.1033738706323
z" fill="none" stroke="none"></path>
<circle cx="0" cy="0" r="23.897547723170547" fill="#8165ea" opacity="0.9">
  <animateMotion begin="-1.8187786602366796s" dur="20s" repeatCount="indefinite">
    <mpath xlink:href="#path2"></mpath>
  </animateMotion>
</circle><path id="path3" d="M 111.01194566255205 941.5186992096652
c 0 28.771572275213934 -7.039852790743834 8.264175015221024 -15.304027805964857 8.264175015221024
S 80.40389005062232 970.2902714848791 80.40389005062232 941.5186992096652
s 7.039852790743834 -8.264175015221024 15.304027805964857 -8.264175015221024
S 111.01194566255205 912.7471269344513 111.01194566255205 941.5186992096652
z" fill="none" stroke="none"></path>
<circle cx="0" cy="0" r="21.084188274767122" fill="#a08cef" opacity="0.9">
  <animateMotion begin="-2.5924705206973098s" dur="20s" repeatCount="indefinite">
    <mpath xlink:href="#path3"></mpath>
  </animateMotion>
</circle><path id="path4" d="M 1460.4978549400014 1020.3786489308977
c 0 34.2370236163926 -8.37714407635138 9.834038698325534 -18.211182774676914 9.834038698325534
S 1424.0754893906476 1054.6156725472904 1424.0754893906476 1020.3786489308977
s 8.37714407635138 -9.834038698325534 18.211182774676914 -9.834038698325534
S 1460.4978549400014 986.1416253145052 1460.4978549400014 1020.3786489308977
z" fill="none" stroke="none"></path>
<circle cx="0" cy="0" r="20.182019089860358" fill="#8165ea" opacity="0.9">
  <animateMotion begin="-18.22396006262126s" dur="20s" repeatCount="indefinite">
    <mpath xlink:href="#path4"></mpath>
  </animateMotion>
</circle><path id="path5" d="M 885.330797073117 564.4896780183199
c 0 28.784075707658214 -7.04291214123552 8.267766426667785 -15.310678567903304 8.267766426667785
S 854.7094399373103 593.273753725978 854.7094399373103 564.4896780183199
s 7.04291214123552 -8.267766426667785 15.310678567903304 -8.267766426667785
S 885.330797073117 535.7056023106617 885.330797073117 564.4896780183199
z" fill="none" stroke="none"></path>
<circle cx="0" cy="0" r="21.226058912689012" fill="#c0b2f5" opacity="0.9">
  <animateMotion begin="-8.656765400774953s" dur="20s" repeatCount="indefinite">
    <mpath xlink:href="#path5"></mpath>
  </animateMotion>
</circle><path id="path6" d="M 87.24049578700681 1063.016698742295
c 0 19.5294997933722 -4.7784946302931965 5.609537174692015 -10.38803180498521 5.609537174692015
S 66.46443217703637 1082.5461985356671 66.46443217703637 1063.016698742295
s 4.7784946302931965 -5.609537174692015 10.38803180498521 -5.609537174692015
S 87.24049578700681 1043.4871989489227 87.24049578700681 1063.016698742295
z" fill="none" stroke="none"></path>
<circle cx="0" cy="0" r="13.868783866338488" fill="#613fe5" opacity="0.9">
  <animateMotion begin="-14.125149983404818s" dur="20s" repeatCount="indefinite">
    <mpath xlink:href="#path6"></mpath>
  </animateMotion>
</circle><path id="path7" d="M 237.5361796257199 309.0879158442756
c 0 33.113922496951815 -8.102342738615867 9.511445823592542 -17.61378856220841 9.511445823592542
S 202.30860250130308 342.2018383412274 202.30860250130308 309.0879158442756
s 8.102342738615867 -9.511445823592542 17.61378856220841 -9.511445823592542
S 237.5361796257199 275.97399334732376 237.5361796257199 309.0879158442756
z" fill="none" stroke="none"></path>
<circle cx="0" cy="0" r="24.219766162154556" fill="#8165ea" opacity="0.9">
  <animateMotion begin="-6.028387698376898s" dur="20s" repeatCount="indefinite">
    <mpath xlink:href="#path7"></mpath>
  </animateMotion>
</circle><path id="path8" d="M 1509.3187547352381 245.875457131225
c 0 33.24822740327624 -8.135204577397376 9.550022764770834 -17.68522734216821 9.550022764770834
S 1473.9483000509017 279.12368453450125 1473.9483000509017 245.875457131225
s 8.135204577397376 -9.550022764770834 17.68522734216821 -9.550022764770834
S 1509.3187547352381 212.62722972794876 1509.3187547352381 245.875457131225
z" fill="none" stroke="none"></path>
<circle cx="0" cy="0" r="22.02282891094755" fill="#8165ea" opacity="0.9">
  <animateMotion begin="-8.74557907040018s" dur="20s" repeatCount="indefinite">
    <mpath xlink:href="#path8"></mpath>
  </animateMotion>
</circle><path id="path9" d="M 1231.200701167858 756.7992473955089
c 0 29.96901767622991 -7.332844750566892 8.60812209849157 -15.940966849058462 8.60812209849157
S 1199.318767469741 786.7682650717388 1199.318767469741 756.7992473955089
s 7.332844750566892 -8.60812209849157 15.940966849058462 -8.60812209849157
S 1231.200701167858 726.830229719279 1231.200701167858 756.7992473955089
z" fill="none" stroke="none"></path>
<circle cx="0" cy="0" r="17.065247557685996" fill="#8165ea" opacity="0.9">
  <animateMotion begin="-18.234269499261902s" dur="20s" repeatCount="indefinite">
    <mpath xlink:href="#path9"></mpath>
  </animateMotion>
</circle><path id="path10" d="M 151.7870378987546 68.58754508828312
c 0 19.305187083003325 -4.7236096054157075 5.5451069280967005 -10.268716533512407 5.5451069280967005
S 131.24960483172976 87.89273217128644 131.24960483172976 68.58754508828312
s 4.7236096054157075 -5.5451069280967005 10.268716533512407 -5.5451069280967005
S 151.7870378987546 49.2823580052798 151.7870378987546 68.58754508828312
z" fill="none" stroke="none"></path>
<circle cx="0" cy="0" r="13.30471158270607" fill="#613fe5" opacity="0.9">
  <animateMotion begin="-19.329077981294795s" dur="20s" repeatCount="indefinite">
    <mpath xlink:href="#path10"></mpath>
  </animateMotion>
</circle><path id="path11" d="M 1139.461982493785 327.8127060626427
c 0 29.14291679040847 -7.130713682759518 8.370837801500306 -15.501551484259824 8.370837801500306
S 1108.4588795252653 356.9556228530512 1108.4588795252653 327.8127060626427
s 7.130713682759518 -8.370837801500306 15.501551484259824 -8.370837801500306
S 1139.461982493785 298.6697892722342 1139.461982493785 327.8127060626427
z" fill="none" stroke="none"></path>
<circle cx="0" cy="0" r="13.296508993229667" fill="#a08cef" opacity="0.9">
  <animateMotion begin="-19.932184505197267s" dur="20s" repeatCount="indefinite">
    <mpath xlink:href="#path11"></mpath>
  </animateMotion>
</circle><path id="path12" d="M 181.65813403733657 405.76607320158314
c 0 36.984727366382856 -9.049454568370273 10.623272754173799 -19.672727322544073 10.623272754173799
S 142.31267939224844 442.750800567966 142.31267939224844 405.76607320158314
s 9.049454568370273 -10.623272754173799 19.672727322544073 -10.623272754173799
S 181.65813403733657 368.7813458352003 181.65813403733657 405.76607320158314
z" fill="none" stroke="none"></path>
<circle cx="0" cy="0" r="17.724969175368198" fill="#a08cef" opacity="0.9">
  <animateMotion begin="-10.114273555911705s" dur="20s" repeatCount="indefinite">
    <mpath xlink:href="#path12"></mpath>
  </animateMotion>
</circle><path id="path13" d="M 1474.0723626394497 589.1914349910904
c 0 23.575601924158573 -5.768498343145182 6.771715446300867 -12.54021378944605 6.771715446300867
S 1448.9919350605578 612.767036915249 1448.9919350605578 589.1914349910904
s 5.768498343145182 -6.771715446300867 12.54021378944605 -6.771715446300867
S 1474.0723626394497 565.6158330669318 1474.0723626394497 589.1914349910904
z" fill="none" stroke="none"></path>
<circle cx="0" cy="0" r="24.248195755355916" fill="#8165ea" opacity="0.9">
  <animateMotion begin="-18.38804412203896s" dur="20s" repeatCount="indefinite">
    <mpath xlink:href="#path13"></mpath>
  </animateMotion>
</circle><path id="path14" d="M 871.2777469594816 673.8043234514312
c 0 33.5268951823563 -8.203389246746752 9.63006563748532 -17.833454884232072 9.63006563748532
S 835.6108371910175 707.3312186337874 835.6108371910175 673.8043234514312
s 8.203389246746752 -9.63006563748532 17.833454884232072 -9.63006563748532
S 871.2777469594816 640.2774282690749 871.2777469594816 673.8043234514312
z" fill="none" stroke="none"></path>
<circle cx="0" cy="0" r="20.311629313083262" fill="#8165ea" opacity="0.9">
  <animateMotion begin="-14.332946103957362s" dur="20s" repeatCount="indefinite">
    <mpath xlink:href="#path14"></mpath>
  </animateMotion>
</circle><path id="path15" d="M 1617.3038300005267 1007.219741766622
c 0 25.822032765719428 -6.318156953314328 7.41696685823856 -13.735123811552887 7.41696685823856
S 1589.8335823774207 1033.0417745323414 1589.8335823774207 1007.219741766622
s 6.318156953314328 -7.41696685823856 13.735123811552887 -7.41696685823856
S 1617.3038300005267 981.3977090009025 1617.3038300005267 1007.219741766622
z" fill="none" stroke="none"></path>
<circle cx="0" cy="0" r="12.621510855855053" fill="#c0b2f5" opacity="0.9">
  <animateMotion begin="-5.442860893283981s" dur="20s" repeatCount="indefinite">
    <mpath xlink:href="#path15"></mpath>
  </animateMotion>
</circle><path id="path16" d="M 524.6895356508295 64.27943630063079
c 0 35.56199156203145 -8.70133836092259 10.214614597604779 -18.91595295852737 10.214614597604779
S 486.8576297337748 99.84142786266224 486.8576297337748 64.27943630063079
s 8.70133836092259 -10.214614597604779 18.91595295852737 -10.214614597604779
S 524.6895356508295 28.71744473859934 524.6895356508295 64.27943630063079
z" fill="none" stroke="none"></path>
<circle cx="0" cy="0" r="13.468774621453289" fill="#613fe5" opacity="0.9">
  <animateMotion begin="-8.279447933026098s" dur="20s" repeatCount="indefinite">
    <mpath xlink:href="#path16"></mpath>
  </animateMotion>
</circle><path id="path17" d="M 233.42598474123943 225.02162902748316
c 0 20.11057880030508 -4.92067353624486 5.776442846896141 -10.697116383141001 5.776442846896141
S 212.03175197495742 245.13220782778825 212.03175197495742 225.02162902748316
s 4.92067353624486 -5.776442846896141 10.697116383141001 -5.776442846896141
S 233.42598474123943 204.91105022717807 233.42598474123943 225.02162902748316
z" fill="none" stroke="none"></path>
<circle cx="0" cy="0" r="24.756023462118343" fill="#c0b2f5" opacity="0.9">
  <animateMotion begin="-8.856673839792052s" dur="20s" repeatCount="indefinite">
    <mpath xlink:href="#path17"></mpath>
  </animateMotion>
</circle><path id="path18" d="M 432.00317293016326 530.0834777894527
c 0 27.8540267706353 -6.815346975793743 8.000624710714396 -14.815971686508139 8.000624710714396
S 402.371229557147 557.937504560088 402.371229557147 530.0834777894527
s 6.815346975793743 -8.000624710714396 14.815971686508139 -8.000624710714396
S 432.00317293016326 502.2294510188174 432.00317293016326 530.0834777894527
z" fill="none" stroke="none"></path>
<circle cx="0" cy="0" r="20.202014547154118" fill="#8165ea" opacity="0.9">
  <animateMotion begin="-16.36108065260749s" dur="20s" repeatCount="indefinite">
    <mpath xlink:href="#path18"></mpath>
  </animateMotion>
</circle><path id="path19" d="M 986.3062855668279 1046.1096222656647
c 0 27.279732870183537 -6.674828255470439 7.835667952073995 -14.510496207544435 7.835667952073995
S 957.2852931517391 1073.3893551358483 957.2852931517391 1046.1096222656647
s 6.674828255470439 -7.835667952073995 14.510496207544435 -7.835667952073995
S 986.3062855668279 1018.8298893954811 986.3062855668279 1046.1096222656647
z" fill="none" stroke="none"></path>
<circle cx="0" cy="0" r="23.00369270924361" fill="#a08cef" opacity="0.9">
  <animateMotion begin="-13.04933018416798s" dur="20s" repeatCount="indefinite">
    <mpath xlink:href="#path19"></mpath>
  </animateMotion>
</circle><path id="path20" d="M 679.2527668885264 1016.8596038945996
c 0 28.29227278871609 -6.922577384473085 8.12650388612058 -15.049081270593664 8.12650388612058
S 649.154604347339 1045.1518766833155 649.154604347339 1016.8596038945996
s 6.922577384473085 -8.12650388612058 15.049081270593664 -8.12650388612058
S 679.2527668885264 988.5673311058835 679.2527668885264 1016.8596038945996
z" fill="none" stroke="none"></path>
<circle cx="0" cy="0" r="16.641796420189355" fill="#c0b2f5" opacity="0.9">
  <animateMotion begin="-0.5217088542320258s" dur="20s" repeatCount="indefinite">
    <mpath xlink:href="#path20"></mpath>
  </animateMotion>
</circle><path id="path21" d="M 1438.2840604197308 805.0626261778187
c 0 27.684967486863368 -6.773981406360185 7.952065129205435 -14.72604653556562 7.952065129205435
S 1408.8319673485994 832.7475936646821 1408.8319673485994 805.0626261778187
s 6.773981406360185 -7.952065129205435 14.72604653556562 -7.952065129205435
S 1438.2840604197308 777.3776586909554 1438.2840604197308 805.0626261778187
z" fill="none" stroke="none"></path>
<circle cx="0" cy="0" r="15.827864548564005" fill="#a08cef" opacity="0.9">
  <animateMotion begin="-17.836626861507398s" dur="20s" repeatCount="indefinite">
    <mpath xlink:href="#path21"></mpath>
  </animateMotion>
</circle><path id="path22" d="M 206.87415014753236 1103.942196168673
c 0 27.787687572887116 -6.799115044429826 7.981569834765448 -14.780684879195274 7.981569834765448
S 177.31278038914184 1131.7298837415601 177.31278038914184 1103.942196168673
s 6.799115044429826 -7.981569834765448 14.780684879195274 -7.981569834765448
S 206.87415014753236 1076.154508595786 206.87415014753236 1103.942196168673
z" fill="none" stroke="none"></path>
<circle cx="0" cy="0" r="17.91063495900718" fill="#8165ea" opacity="0.9">
  <animateMotion begin="-0.8833335297567446s" dur="20s" repeatCount="indefinite">
    <mpath xlink:href="#path22"></mpath>
  </animateMotion>
</circle><path id="path23" d="M 1559.3596317672889 1081.9971332542293
c 0 29.544175241422458 -7.228893942050175 8.486092888493685 -15.714986830543861 8.486092888493685
S 1527.929658106201 1111.5413084956517 1527.929658106201 1081.9971332542293
s 7.228893942050175 -8.486092888493685 15.714986830543861 -8.486092888493685
S 1559.3596317672889 1052.452958012807 1559.3596317672889 1081.9971332542293
z" fill="none" stroke="none"></path>
<circle cx="0" cy="0" r="24.78276018914222" fill="#c0b2f5" opacity="0.9">
  <animateMotion begin="-3.0782084549885136s" dur="20s" repeatCount="indefinite">
    <mpath xlink:href="#path23"></mpath>
  </animateMotion>
</circle><path id="path24" d="M 372.07627971135963 93.52081216025353
c 0 29.585586016750234 -7.239026365800588 8.497987472896344 -15.737013838696932 8.497987472896344
S 340.6022520339657 123.10639817700377 340.6022520339657 93.52081216025353
s 7.239026365800588 -8.497987472896344 15.737013838696932 -8.497987472896344
S 372.07627971135963 63.93522614350329 372.07627971135963 93.52081216025353
z" fill="none" stroke="none"></path>
<circle cx="0" cy="0" r="24.89378558247321" fill="#c0b2f5" opacity="0.9">
  <animateMotion begin="-7.9768950245403625s" dur="20s" repeatCount="indefinite">
    <mpath xlink:href="#path24"></mpath>
  </animateMotion>
</circle><path id="path25" d="M 1031.2284020351426 542.4068174210506
c 0 36.14563987614704 -8.844145927142359 10.382258262297553 -19.22640418943991 10.382258262297553
S 992.7755936562627 578.5524572971976 992.7755936562627 542.4068174210506
s 8.844145927142359 -10.382258262297553 19.22640418943991 -10.382258262297553
S 1031.2284020351426 506.2611775449036 1031.2284020351426 542.4068174210506
z" fill="none" stroke="none"></path>
<circle cx="0" cy="0" r="20.265226052358855" fill="#613fe5" opacity="0.9">
  <animateMotion begin="-3.4220427908338635s" dur="20s" repeatCount="indefinite">
    <mpath xlink:href="#path25"></mpath>
  </animateMotion>
</circle><path id="path26" d="M 490.2579440386 1065.9097076188764
c 0 25.81662960082533 -6.316834902329601 7.415414885343446 -13.732249787673048 7.415414885343446
S 462.79344446325393 1091.7263372197017 462.79344446325393 1065.9097076188764
s 6.316834902329601 -7.415414885343446 13.732249787673048 -7.415414885343446
S 490.2579440386 1040.093078018051 490.2579440386 1065.9097076188764
z" fill="none" stroke="none"></path>
<circle cx="0" cy="0" r="16.6682328227173" fill="#a08cef" opacity="0.9">
  <animateMotion begin="-17.360535683346722s" dur="20s" repeatCount="indefinite">
    <mpath xlink:href="#path26"></mpath>
  </animateMotion>
</circle><path id="path27" d="M 576.0965099208761 926.7131905708475
c 0 20.702959227587762 -5.065617683345941 5.946594671753932 -11.012212355099873 5.946594671753932
S 554.0720852106763 947.4161497984352 554.0720852106763 926.7131905708475
s 5.065617683345941 -5.946594671753932 11.012212355099873 -5.946594671753932
S 576.0965099208761 906.0102313432598 576.0965099208761 926.7131905708475
z" fill="none" stroke="none"></path>
<circle cx="0" cy="0" r="12.616383789120045" fill="#613fe5" opacity="0.9">
  <animateMotion begin="-5.697927060044585s" dur="20s" repeatCount="indefinite">
    <mpath xlink:href="#path27"></mpath>
  </animateMotion>
</circle><path id="path28" d="M 253.09645317340568 836.0907302692212
c 0 18.920484276243283 -4.629480195251015 5.434607185729454 -10.06408738098047 5.434607185729454
S 232.96827841144471 855.0112145454646 232.96827841144471 836.0907302692212
s 4.629480195251015 -5.434607185729454 10.06408738098047 -5.434607185729454
S 253.09645317340568 817.1702459929779 253.09645317340568 836.0907302692212
z" fill="none" stroke="none"></path>
<circle cx="0" cy="0" r="16.85643395030845" fill="#613fe5" opacity="0.9">
  <animateMotion begin="-5.050081886732634s" dur="20s" repeatCount="indefinite">
    <mpath xlink:href="#path28"></mpath>
  </animateMotion>
</circle><path id="path29" d="M 1260.1149548887004 1086.5419272154186
c 0 25.21734086856772 -6.170200425287845 7.243278760120516 -13.413479185408361 7.243278760120516
S 1233.2879965178838 1111.7592680839864 1233.2879965178838 1086.5419272154186
s 6.170200425287845 -7.243278760120516 13.413479185408361 -7.243278760120516
S 1260.1149548887004 1061.3245863468508 1260.1149548887004 1086.5419272154186
z" fill="none" stroke="none"></path>
<circle cx="0" cy="0" r="14.34147507733448" fill="#c0b2f5" opacity="0.9">
  <animateMotion begin="-6.088080553694621s" dur="20s" repeatCount="indefinite">
    <mpath xlink:href="#path29"></mpath>
  </animateMotion>
</circle><path id="path30" d="M 662.0134874059462 349.4084516896586
c 0 34.27777824517453 -8.387115953606532 9.845744815103323 -18.232860768709855 9.845744815103323
S 625.5477658685264 383.68622993483314 625.5477658685264 349.4084516896586
s 8.387115953606532 -9.845744815103323 18.232860768709855 -9.845744815103323
S 662.0134874059462 315.13067344448405 662.0134874059462 349.4084516896586
z" fill="none" stroke="none"></path>
<circle cx="0" cy="0" r="16.364975108140527" fill="#613fe5" opacity="0.9">
  <animateMotion begin="-16.5842933029311s" dur="20s" repeatCount="indefinite">
    <mpath xlink:href="#path30"></mpath>
  </animateMotion>
</circle></g>
</svg>